Coordinates
version=1
nRows=17
nColumns=36
inDegrees=yes

Units are S.I. units (second, meters, Newtons, ...)
If the header above contains a line with 'inDegrees', this indicates whether rotational values are in degrees (yes) or radians (no).

endheader
time	pelvis_tilt	pelvis_list	pelvis_rotation	pelvis_tx	pelvis_ty	pelvis_tz	hip_flexion_r	hip_adduction_r	hip_rotation_r	knee_angle_r	knee_angle_r_beta	ankle_angle_r	subtalar_angle_r	mtp_angle_r	hip_flexion_l	hip_adduction_l	hip_rotation_l	knee_angle_l	knee_angle_l_beta	ankle_angle_l	subtalar_angle_l	mtp_angle_l	lumbar_extension	lumbar_bending	lumbar_rotation	arm_flex_r	arm_add_r	arm_rot_r	elbow_flex_r	pro_sup_r	arm_flex_l	arm_add_l	arm_rot_l	elbow_flex_l	pro_sup_l
     44.75000000	      6.11885688	     -0.50437147	     -2.06305723	      0.69700504	      1.03029606	      0.68701618	     19.69736323	     -1.43950993	      1.21975091	     36.81389278	      0.64252364	      1.07034762	    -13.52292862	     -7.49999987	    -11.11120790	      2.73294662	      5.17391124	      7.48374535	      0.13061600	     10.74812202	     -4.76379717	     -7.49999987	    -18.23952740	     -1.76287005	      4.45403909	     -5.13424911	    -14.06936895	     -6.30352862	     28.58173618	     90.19631474	     18.90387645	    -15.76248240	     24.39638990	     27.61535901	     88.30854581
     44.76666670	      5.87540373	     -0.28289635	     -2.12441825	      0.69279817	      1.02895431	      0.68858396	     19.81372226	     -1.70660287	      1.15932669	     31.57412393	      0.55107242	      0.45702944	    -12.63189401	     -7.49999987	    -11.71866333	      2.88236782	      5.22608595	      7.22503670	      0.12610068	     11.11323988	     -4.78207105	     -7.49999987	    -18.17877287	     -1.87988106	      4.38292584	     -4.95802782	    -14.07516741	     -6.50979043	     28.51397926	     91.03943004	     19.24895359	    -16.00321287	     24.46730673	     28.36491082	     88.83952512
     44.78333330	      5.57969655	      0.05962830	     -2.20441805	      0.68843162	      1.02741159	      0.69018769	     19.82659564	     -2.04930382	      1.17671700	     26.14294382	      0.45628045	     -0.30892505	    -11.48911355	     -7.49999987	    -12.12279363	      3.11669023	      5.14961809	      7.17964998	      0.12530853	     11.65160181	     -4.55316640	     -7.49999987	    -18.06426596	     -2.15038005	      4.20257650	     -4.68516847	    -14.10505827	     -6.52397717	     28.42014213	     91.96014791	     19.51259243	    -16.42073557	     24.65325816	     29.08931830	     89.44411303
     44.80000000	      5.19147142	      0.48831834	     -2.20904584	      0.68448672	      1.02560891	      0.69226750	     19.83559520	     -2.48682030	      1.02280398	     20.79838801	      0.36300035	     -0.92869843	     -9.95810449	     -7.49999987	    -12.32114957	      3.41999592	      5.31401050	      7.26006461	      0.12671203	     12.19508581	     -4.54763547	     -7.49999987	    -17.79518004	     -2.53774056	      4.01872740	     -4.32673893	    -14.08037934	     -6.34134813	     28.10927526	     92.81399171	     19.79512091	    -16.74361092	     24.80728800	     29.74815572	     90.01497831
     44.81666670	      4.67866446	      0.94695807	     -2.14117407	      0.68127476	      1.02496980	      0.69548501	     19.90449398	     -2.90418646	      0.74550817	     15.77815414	      0.27538074	     -1.14910634	     -7.89229981	     -7.49999987	    -12.35614089	      3.71091029	      5.52174338	      7.36464485	      0.12853730	     12.90679364	     -4.39403804	     -7.49999987	    -17.24075438	     -2.99904277	      3.68580600	     -3.87744014	    -14.00479085	     -5.88153344	     27.69231216	     93.38893566	     20.01544028	    -17.09879906	     25.06868999	     30.08388279	     90.33217671
     44.83333330	      4.29533313	      1.32936834	     -1.98962690	      0.67900260	      1.02601642	      0.69945398	     19.77925086	     -3.19058317	      0.44626826	     11.35289406	      0.19814538	     -1.11240187	     -5.58502856	     -7.49999987	    -12.47068761	      3.86855701	      5.61214083	      7.58067879	      0.13230780	     13.96387771	     -3.84099649	     -7.49999987	    -16.82953875	     -3.37238337	      3.26668460	     -3.57103909	    -13.92424624	     -5.28411199	     27.86252309	     93.66159964	     20.19857730	    -17.52554103	     25.60539722	     30.23631565	     90.44553556
     44.85000000	      3.91058222	      1.68141180	     -1.80627697	      0.67795377	      1.02674583	      0.70378514	     19.76776594	     -3.41113559	      0.12299424	      7.98846382	      0.13942500	     -0.86191975	     -3.25102649	     -7.49999987	    -12.56030678	      3.97126567	      5.94905269	      7.80727620	      0.13626268	     14.89562565	     -3.65852938	     -7.49999987	    -16.33127425	     -3.76412717	      3.18663546	     -3.32325452	    -13.72929189	     -4.98131239	     27.68261556	     93.31437257	     20.47956515	    -17.59514547	     25.74336327	     30.16569719	     90.03996824
     44.86666670	      3.65078192	      1.87072329	     -1.65772536	      0.67774242	      1.02548496	      0.70836455	     19.72450507	     -3.42083434	     -0.11958003	      5.79106423	      0.10107314	     -0.61853196	     -1.36344809	     -7.49999987	    -12.71824945	      3.86863603	      6.15016785	      8.16709783	      0.14254275	     15.80908552	     -3.43835925	     -7.49999987	    -16.00542945	     -3.97163493	      3.25834814	     -3.25468886	    -13.56295540	     -4.93694053	     27.87830956	     93.65749040	     20.77799258	    -17.54588952	     25.91946779	     29.89297994	     90.40850509
     44.88333330	      3.43935567	      1.87610729	     -1.60344106	      0.67802155	      1.02289575	      0.71225442	     19.71871640	     -3.19096327	     -0.28091308	      4.81947782	      0.08411576	     -0.59364351	     -0.18846789	     -7.49999987	    -12.84275812	      3.55079163	      6.10536146	      8.69908881	      0.15182774	     16.63221610	     -3.19661064	     -7.49999987	    -15.66074962	     -4.04289629	      3.58606284	     -3.06068003	    -13.44819425	     -4.50140996	     27.60413262	     93.09616996	     21.21726354	    -17.17167181	     26.06662897	     29.01611577	     89.83322221
     44.90000000	      3.36692478	      1.66701603	     -1.63587680	      0.67960698	      1.02057141	      0.71454531	     19.54141872	     -2.71593908	     -0.33913173	      4.93917417	      0.08620485	     -1.05242047	      0.07545536	     -7.49999987	    -13.05795878	      3.02626963	      6.01537970	      9.33828967	      0.16298390	     17.14421949	     -3.33437082	     -7.49999987	    -15.54042809	     -3.83463254	      3.82457110	     -2.83263047	    -13.38290845	     -4.45690317	     27.63647966	     93.18928034	     21.19196839	    -16.98772525	     26.02739350	     28.84676654	     89.93199350
     44.91666670	      3.37258460	      1.27637246	     -1.71694376	      0.68381759	      1.01938409	      0.71614952	     19.17173593	     -2.06699824	     -0.47374712	      5.85069970	      0.10211397	     -1.84965462	      0.03089216	     -7.49999987	    -13.30952736	      2.32240958	      5.69639117	     10.08170816	      0.17595900	     17.53829196	     -3.14814311	     -7.49999987	    -15.38970567	     -3.36872783	      4.12396255	     -2.59410932	    -13.42939195	     -4.33455380	     27.47246652	     93.23654452	     21.05612018	    -16.58104489	     25.76992297	     28.26521274	     89.95337112
     44.93333330	      3.47094268	      0.85443991	     -1.98163205	      0.69106404	      1.02021189	      0.71896724	     18.67077002	     -1.34451510	     -0.24070727	      7.22323142	      0.12606917	     -3.05366157	     -0.62905920	     -7.49999987	    -13.67926444	      1.61628528	      5.01168069	     10.79973176	      0.18849088	     17.75514569	     -2.48036366	     -7.49999987	    -15.10202759	     -2.92000117	      4.49955367	     -2.01262563	    -13.56367280	     -3.24555341	     26.29238079	     92.41832952	     20.85123842	    -15.73412774	     24.60796883	     26.45377098	     89.00676060
     44.95000000	      3.55628505	      0.37315963	     -2.21625913	      0.69912834	      1.02230636	      0.72265819	     18.15505555	     -0.61971366	     -0.27496767	      8.71923413	      0.15217934	     -3.91413858	     -0.71929049	     -7.49999987	    -13.90881686	      0.88399695	      4.64194358	     11.84768121	      0.20678105	     17.40631016	     -2.56281718	     -7.49999987	    -14.92229804	     -2.30008896	      4.79564563	     -1.87021806	    -13.67917189	     -3.20611135	     26.31454804	     92.39776338	     20.02119888	    -15.50120000	     24.61466539	     26.18325793	     89.02499436
     44.96666670	      3.58592605	     -0.20388320	     -2.52334863	      0.70405451	      1.02367095	      0.72627300	     17.60267287	      0.31435023	      0.31467953	      9.97957773	      0.17417649	     -4.98433196	     -1.96797691	     -7.49999987	    -13.67289910	     -0.07224566	      3.57936937	     13.97046169	      0.24383055	     17.22866700	     -1.68747810	     -7.49999987	    -14.54245925	     -1.63685986	      4.87025203	     -1.20419784	    -13.78048295	     -2.52037563	     25.33240249	     92.77926112	     19.00521190	    -14.96690955	     23.88556661	     24.71548992	     89.29345907
     44.98333330	      3.31643023	     -0.79776308	     -2.88101188	      0.70479045	      1.02432651	      0.72857965	     17.49858741	      1.27999289	      0.60783664	     11.46345102	      0.20007496	     -5.15647878	     -2.61749012	     -7.49999987	    -12.50286320	     -1.21744379	      2.27524452	     17.70731689	      0.30905098	     16.30297923	     -1.21725658	     -7.49999987	    -13.87836029	     -0.91718954	      4.44954497	      0.31583683	    -14.01123038	     -0.20069871	     23.36838199	     93.32469904	     17.24121749	    -14.75654755	     22.35467446	     23.98285721	     89.84558251
     45.00000000	      2.99675604	     -1.58067760	     -3.08522199	      0.70495450	      1.02343351	      0.72980625	     17.44591363	      2.44939274	      0.80732612	     13.08010581	      0.22829091	     -4.77815043	     -3.61525670	     -7.49999987	    -10.45420827	     -2.89271201	      0.87220603	     23.44170509	      0.40913494	     14.50251556	     -0.82128697	     -7.49999987	    -13.43492460	      0.11212132	      3.36563240	      2.20397673	    -14.30818349	      2.49319260	     22.07037495	     95.76930351	     14.61357887	    -14.57010599	     17.45990312	     24.59608305	     95.32205126
     45.01666670	      2.68967457	     -2.62102840	     -3.18964025	      0.70677575	      1.02346777	      0.73084370	     17.28964313	      3.90228984	      1.08308574	     14.76639559	      0.25772222	     -3.61486052	     -4.86615777	     -7.49999987	     -7.74118987	     -5.07838218	     -0.17107500	     30.61146586	      0.53427087	     11.18373016	     -0.90277371	     -7.49999987	    -13.01320130	      1.40216028	      3.21095676	      3.20320122	    -14.75121274	      4.39720807	     21.66682451	     94.73090399	     13.37314125	    -14.23168935	     17.48880442	     23.80981705	     94.48461416
